<?xml version="1.0" encoding="UTF-8"?>
<svg xmlns="http://www.w3.org/2000/svg" version="1.1" xmlns:xlink="http://www.w3.org/1999/xlink" viewBox="0 0 750 500">
  <defs>
    <style>
      .cls-1 {
        fill: #2a2a2a;
      }

      .cls-1, .cls-2, .cls-3, .cls-4, .cls-5, .cls-6, .cls-7 {
        stroke-width: 0px;
      }

      .cls-2 {
        fill: #171717;
      }

      .cls-8 {
        filter: url(#drop-shadow-10);
      }

      .cls-3 {
        fill: #222;
      }

      .cls-9 {
        filter: url(#drop-shadow-14);
      }

      .cls-10 {
        filter: url(#drop-shadow-7);
      }

      .cls-4 {
        fill: #1e1e1e;
      }

      .cls-11 {
        filter: url(#drop-shadow-21);
      }

      .cls-12 {
        mix-blend-mode: multiply;
      }

      .cls-12, .cls-6 {
        opacity: .2;
      }

      .cls-13 {
        filter: url(#drop-shadow-4);
      }

      .cls-14 {
        isolation: isolate;
      }

      .cls-15 {
        filter: url(#drop-shadow-8);
      }

      .cls-16 {
        filter: url(#drop-shadow-23);
      }

      .cls-17 {
        filter: url(#drop-shadow-15);
      }

      .cls-18 {
        filter: url(#drop-shadow-17);
      }

      .cls-19 {
        filter: url(#drop-shadow-3);
      }

      .cls-20 {
        filter: url(#drop-shadow-11);
      }

      .cls-5 {
        fill: none;
      }

      .cls-21 {
        filter: url(#drop-shadow-1);
      }

      .cls-22 {
        filter: url(#drop-shadow-6);
      }

      .cls-23 {
        filter: url(#drop-shadow-22);
      }

      .cls-24 {
        filter: url(#drop-shadow-20);
      }

      .cls-25 {
        filter: url(#drop-shadow-5);
      }

      .cls-26 {
        filter: url(#drop-shadow-2);
      }

      .cls-27 {
        clip-path: url(#clippath);
      }

      .cls-28 {
        filter: url(#drop-shadow-16);
      }

      .cls-29 {
        filter: url(#drop-shadow-18);
      }

      .cls-6 {
        fill: #fbfbfb;
        mix-blend-mode: overlay;
      }

      .cls-30 {
        filter: url(#drop-shadow-9);
      }

      .cls-7 {
        fill: #333132;
      }

      .cls-31 {
        filter: url(#drop-shadow-13);
      }

      .cls-32 {
        filter: url(#drop-shadow-19);
      }

      .cls-33 {
        filter: url(#drop-shadow-12);
      }
    </style>
    <clipPath id="clippath">
      <rect class="cls-5" width="750" height="500"/>
    </clipPath>
    <filter id="drop-shadow-1" filterUnits="userSpaceOnUse">
      <feOffset dx="-7" dy="8"/>
      <feGaussianBlur result="blur" stdDeviation="10"/>
      <feFlood flood-color="#000" flood-opacity=".59"/>
      <feComposite in2="blur" operator="in"/>
      <feComposite in="SourceGraphic"/>
    </filter>
    <filter id="drop-shadow-2" filterUnits="userSpaceOnUse">
      <feOffset dx="-7" dy="8"/>
      <feGaussianBlur result="blur-2" stdDeviation="10"/>
      <feFlood flood-color="#000" flood-opacity=".59"/>
      <feComposite in2="blur-2" operator="in"/>
      <feComposite in="SourceGraphic"/>
    </filter>
    <filter id="drop-shadow-3" filterUnits="userSpaceOnUse">
      <feOffset dx="-7" dy="8"/>
      <feGaussianBlur result="blur-3" stdDeviation="10"/>
      <feFlood flood-color="#000" flood-opacity=".59"/>
      <feComposite in2="blur-3" operator="in"/>
      <feComposite in="SourceGraphic"/>
    </filter>
    <filter id="drop-shadow-4" filterUnits="userSpaceOnUse">
      <feOffset dx="-7" dy="8"/>
      <feGaussianBlur result="blur-4" stdDeviation="10"/>
      <feFlood flood-color="#000" flood-opacity=".59"/>
      <feComposite in2="blur-4" operator="in"/>
      <feComposite in="SourceGraphic"/>
    </filter>
    <filter id="drop-shadow-5" filterUnits="userSpaceOnUse">
      <feOffset dx="-7" dy="8"/>
      <feGaussianBlur result="blur-5" stdDeviation="10"/>
      <feFlood flood-color="#000" flood-opacity=".59"/>
      <feComposite in2="blur-5" operator="in"/>
      <feComposite in="SourceGraphic"/>
    </filter>
    <filter id="drop-shadow-6" filterUnits="userSpaceOnUse">
      <feOffset dx="-7" dy="8"/>
      <feGaussianBlur result="blur-6" stdDeviation="10"/>
      <feFlood flood-color="#000" flood-opacity=".59"/>
      <feComposite in2="blur-6" operator="in"/>
      <feComposite in="SourceGraphic"/>
    </filter>
    <filter id="drop-shadow-7" filterUnits="userSpaceOnUse">
      <feOffset dx="-7" dy="8"/>
      <feGaussianBlur result="blur-7" stdDeviation="10"/>
      <feFlood flood-color="#000" flood-opacity=".59"/>
      <feComposite in2="blur-7" operator="in"/>
      <feComposite in="SourceGraphic"/>
    </filter>
    <filter id="drop-shadow-8" filterUnits="userSpaceOnUse">
      <feOffset dx="-7" dy="8"/>
      <feGaussianBlur result="blur-8" stdDeviation="10"/>
      <feFlood flood-color="#000" flood-opacity=".59"/>
      <feComposite in2="blur-8" operator="in"/>
      <feComposite in="SourceGraphic"/>
    </filter>
    <filter id="drop-shadow-9" filterUnits="userSpaceOnUse">
      <feOffset dx="-7" dy="8"/>
      <feGaussianBlur result="blur-9" stdDeviation="10"/>
      <feFlood flood-color="#000" flood-opacity=".59"/>
      <feComposite in2="blur-9" operator="in"/>
      <feComposite in="SourceGraphic"/>
    </filter>
    <filter id="drop-shadow-10" filterUnits="userSpaceOnUse">
      <feOffset dx="-7" dy="8"/>
      <feGaussianBlur result="blur-10" stdDeviation="10"/>
      <feFlood flood-color="#000" flood-opacity=".59"/>
      <feComposite in2="blur-10" operator="in"/>
      <feComposite in="SourceGraphic"/>
    </filter>
    <filter id="drop-shadow-11" filterUnits="userSpaceOnUse">
      <feOffset dx="-7" dy="8"/>
      <feGaussianBlur result="blur-11" stdDeviation="10"/>
      <feFlood flood-color="#000" flood-opacity=".59"/>
      <feComposite in2="blur-11" operator="in"/>
      <feComposite in="SourceGraphic"/>
    </filter>
    <filter id="drop-shadow-12" filterUnits="userSpaceOnUse">
      <feOffset dx="-7" dy="8"/>
      <feGaussianBlur result="blur-12" stdDeviation="10"/>
      <feFlood flood-color="#000" flood-opacity=".59"/>
      <feComposite in2="blur-12" operator="in"/>
      <feComposite in="SourceGraphic"/>
    </filter>
    <filter id="drop-shadow-13" filterUnits="userSpaceOnUse">
      <feOffset dx="-7" dy="8"/>
      <feGaussianBlur result="blur-13" stdDeviation="10"/>
      <feFlood flood-color="#000" flood-opacity=".59"/>
      <feComposite in2="blur-13" operator="in"/>
      <feComposite in="SourceGraphic"/>
    </filter>
    <filter id="drop-shadow-14" filterUnits="userSpaceOnUse">
      <feOffset dx="-7" dy="8"/>
      <feGaussianBlur result="blur-14" stdDeviation="10"/>
      <feFlood flood-color="#000" flood-opacity=".59"/>
      <feComposite in2="blur-14" operator="in"/>
      <feComposite in="SourceGraphic"/>
    </filter>
    <filter id="drop-shadow-15" filterUnits="userSpaceOnUse">
      <feOffset dx="-7" dy="8"/>
      <feGaussianBlur result="blur-15" stdDeviation="10"/>
      <feFlood flood-color="#000" flood-opacity=".59"/>
      <feComposite in2="blur-15" operator="in"/>
      <feComposite in="SourceGraphic"/>
    </filter>
    <filter id="drop-shadow-16" filterUnits="userSpaceOnUse">
      <feOffset dx="-7" dy="8"/>
      <feGaussianBlur result="blur-16" stdDeviation="10"/>
      <feFlood flood-color="#000" flood-opacity=".59"/>
      <feComposite in2="blur-16" operator="in"/>
      <feComposite in="SourceGraphic"/>
    </filter>
    <filter id="drop-shadow-17" filterUnits="userSpaceOnUse">
      <feOffset dx="-7" dy="8"/>
      <feGaussianBlur result="blur-17" stdDeviation="10"/>
      <feFlood flood-color="#000" flood-opacity=".59"/>
      <feComposite in2="blur-17" operator="in"/>
      <feComposite in="SourceGraphic"/>
    </filter>
    <filter id="drop-shadow-18" filterUnits="userSpaceOnUse">
      <feOffset dx="-7" dy="8"/>
      <feGaussianBlur result="blur-18" stdDeviation="10"/>
      <feFlood flood-color="#000" flood-opacity=".59"/>
      <feComposite in2="blur-18" operator="in"/>
      <feComposite in="SourceGraphic"/>
    </filter>
    <filter id="drop-shadow-19" filterUnits="userSpaceOnUse">
      <feOffset dx="-7" dy="8"/>
      <feGaussianBlur result="blur-19" stdDeviation="10"/>
      <feFlood flood-color="#000" flood-opacity=".59"/>
      <feComposite in2="blur-19" operator="in"/>
      <feComposite in="SourceGraphic"/>
    </filter>
    <filter id="drop-shadow-20" filterUnits="userSpaceOnUse">
      <feOffset dx="-7" dy="8"/>
      <feGaussianBlur result="blur-20" stdDeviation="10"/>
      <feFlood flood-color="#000" flood-opacity=".59"/>
      <feComposite in2="blur-20" operator="in"/>
      <feComposite in="SourceGraphic"/>
    </filter>
    <filter id="drop-shadow-21" filterUnits="userSpaceOnUse">
      <feOffset dx="-7" dy="8"/>
      <feGaussianBlur result="blur-21" stdDeviation="10"/>
      <feFlood flood-color="#000" flood-opacity=".59"/>
      <feComposite in2="blur-21" operator="in"/>
      <feComposite in="SourceGraphic"/>
    </filter>
    <filter id="drop-shadow-22" filterUnits="userSpaceOnUse">
      <feOffset dx="-7" dy="8"/>
      <feGaussianBlur result="blur-22" stdDeviation="10"/>
      <feFlood flood-color="#000" flood-opacity=".59"/>
      <feComposite in2="blur-22" operator="in"/>
      <feComposite in="SourceGraphic"/>
    </filter>
    <filter id="drop-shadow-23" filterUnits="userSpaceOnUse">
      <feOffset dx="-7" dy="8"/>
      <feGaussianBlur result="blur-23" stdDeviation="10"/>
      <feFlood flood-color="#000" flood-opacity=".59"/>
      <feComposite in2="blur-23" operator="in"/>
      <feComposite in="SourceGraphic"/>
    </filter>
  </defs>
  <g class="cls-14">
    <g id="BACKGROUND">
      <rect class="cls-2" width="750" height="500"/>
    </g>
    <g id="OBJECTS">
      <g class="cls-27">
        <g class="cls-12">
          <path class="cls-7" d="M562.99,258.94c-.09,0-.17-.01-.26-.03l-25.49-6.83c-.34-.09-.61-.36-.71-.71l-6.83-25.49c-.09-.35,0-.71.26-.97l18.25-18.25-6.68-24.94c-.09-.35,0-.71.26-.97l18.66-18.66c.25-.25.62-.35.97-.26l25.49,6.83c.34.09.61.36.71.71l6.68,24.94,24.94,6.68c.34.09.61.36.71.71l6.83,25.49c.09.35,0,.71-.26.97l-18.66,18.66c-.25.25-.62.35-.97.26l-24.94-6.68-18.25,18.25c-.19.19-.45.29-.71.29ZM538.31,250.29l24.38,6.53,18.25-18.25c.25-.25.62-.35.97-.26l24.94,6.68,17.85-17.85-6.53-24.38-24.94-6.68c-.34-.09-.61-.36-.71-.71l-6.68-24.94-24.38-6.53-17.85,17.85,6.68,24.94c.09.35,0,.71-.26.97l-18.25,18.25,6.53,24.38Z"/>
          <polygon class="cls-7" points="751.36 -.63 758.19 24.87 739.53 43.53 714.04 36.7 707.21 11.21 725.87 -7.46 751.36 -.63"/>
          <polygon class="cls-7" points="482.72 402.24 489.55 427.73 470.88 446.4 445.39 439.56 438.56 414.07 457.22 395.41 482.72 402.24"/>
          <polygon class="cls-7" points="407.86 382.64 414.69 408.14 396.02 426.8 370.53 419.97 363.7 394.47 382.36 375.81 407.86 382.64"/>
          <polygon class="cls-7" points="396.07 425.9 402.9 451.39 384.24 470.06 358.75 463.23 351.91 437.73 370.58 419.07 396.07 425.9"/>
          <polygon class="cls-7" points="526.63 390.5 533.47 415.99 514.8 434.65 489.31 427.82 482.48 402.33 501.14 383.67 526.63 390.5"/>
          <path class="cls-7" d="M671.46,311.73c-.09,0-.17-.01-.26-.03l-25.49-6.83c-.34-.09-.61-.36-.71-.71l-6.83-25.49c-.09-.34,0-.71.26-.97l18.66-18.66c.25-.25.62-.35.97-.26l25.49,6.83c.34.09.61.36.71.71l6.83,25.49c.09.34,0,.71-.26.97l-18.66,18.66c-.19.19-.45.29-.71.29ZM646.78,303.08l24.38,6.53,17.85-17.85-6.53-24.38-24.38-6.53-17.85,17.85,6.53,24.38Z"/>
          <path class="cls-7" d="M527.66,391.91c-.09,0-.17-.01-.26-.03l-25.49-6.83c-.34-.09-.61-.36-.71-.71l-6.83-25.49c-.09-.34,0-.71.26-.97l18.25-18.25-6.68-24.93c-.09-.34,0-.71.26-.97l18.66-18.66c.25-.25.62-.35.97-.26l24.94,6.68,18.25-18.25c.25-.25.62-.35.97-.26l25.49,6.83c.34.09.61.36.71.71l6.83,25.49c.09.34,0,.71-.26.97l-18.66,18.66c-.25.25-.62.35-.97.26l-24.94-6.68-17.85,17.85,6.68,24.94c.09.34,0,.71-.26.97l-18.66,18.66c-.19.19-.45.29-.71.29ZM502.99,383.26l24.38,6.53,17.85-17.85-6.68-24.94c-.09-.34,0-.71.26-.97l18.66-18.66c.25-.25.62-.35.97-.26l24.94,6.68,17.85-17.85-6.53-24.38-24.38-6.53-18.25,18.25c-.25.25-.62.35-.97.26l-24.94-6.68-17.85,17.85,6.68,24.93c.09.34,0,.71-.26.97l-18.25,18.25,6.53,24.38Z"/>
          <path class="cls-7" d="M252.86,506.9c-.09,0-.17-.01-.26-.03l-25.49-6.83c-.34-.09-.61-.36-.71-.71l-6.83-25.49c-.09-.34,0-.71.26-.97l18.25-18.25-6.68-24.94c-.09-.34,0-.71.26-.97l18.66-18.66c.25-.25.62-.35.97-.26l24.94,6.68,18.25-18.25c.25-.25.62-.35.97-.26l25.49,6.83c.34.09.61.36.71.71l6.83,25.49c.09.34,0,.71-.26.97l-18.66,18.66c-.25.25-.62.35-.97.26l-24.93-6.68-17.85,17.85,6.68,24.93c.09.34,0,.71-.26.97l-18.66,18.66c-.19.19-.45.29-.71.29ZM228.18,498.26l24.38,6.53,17.85-17.85-6.68-24.93c-.09-.34,0-.71.26-.97l18.66-18.66c.25-.25.62-.35.97-.26l24.94,6.68,17.85-17.85-6.53-24.38-24.38-6.53-18.25,18.25c-.25.25-.62.35-.97.26l-24.94-6.68-17.85,17.85,6.68,24.94c.09.34,0,.71-.26.97l-18.25,18.25,6.53,24.38Z"/>
          <path class="cls-7" d="M706.77,179.66c-.09,0-.17-.01-.26-.03l-25.49-6.83c-.34-.09-.61-.36-.71-.71l-6.83-25.49c-.09-.35,0-.71.26-.97l18.25-18.25-6.68-24.94c-.09-.35,0-.71.26-.97l18.66-18.66c.25-.25.62-.35.97-.26l24.94,6.68,18.25-18.25c.25-.25.62-.35.97-.26l25.49,6.83c.34.09.61.36.71.71l6.83,25.49c.09.35,0,.71-.26.97l-18.66,18.66c-.25.25-.62.35-.97.26l-24.94-6.68-17.85,17.85,6.68,24.94c.09.35,0,.71-.26.97l-18.66,18.66c-.19.19-.45.29-.71.29ZM682.09,171.02l24.38,6.53,17.85-17.85-6.68-24.94c-.09-.35,0-.71.26-.97l18.66-18.66c.25-.25.62-.35.97-.26l24.94,6.68,17.85-17.85-6.53-24.38-24.38-6.53-18.25,18.25c-.25.25-.62.35-.97.26l-24.94-6.68-17.85,17.85,6.68,24.94c.09.35,0,.71-.26.97l-18.25,18.25,6.53,24.38Z"/>
        </g>
        <g class="cls-21">
          <polygon class="cls-4" points="566.37 448.07 559.54 422.58 578.2 403.92 603.7 410.75 622.36 392.08 647.85 398.91 666.51 380.25 692.01 387.08 710.67 368.42 703.84 342.93 722.5 324.27 747.99 331.1 766.65 312.44 759.82 286.94 778.48 268.28 803.98 275.11 810.81 300.6 792.15 319.27 798.98 344.76 780.31 363.42 754.82 356.59 736.16 375.25 742.99 400.75 724.33 419.41 698.84 412.58 680.17 431.24 687.01 456.73 668.34 475.39 642.85 468.56 636.02 443.07 610.53 436.24 591.86 454.9 598.7 480.39 624.19 487.23 631.02 512.72 656.51 519.55 663.34 545.04 644.68 563.7 619.19 556.87 600.53 575.54 575.03 568.7 568.2 543.21 586.86 524.55 580.03 499.06 554.54 492.23 547.71 466.73 566.37 448.07"/>
          <path class="cls-6" d="M547.71,466.73l6.83,25.49,25.49,6.83,6.83,25.49-18.66,18.66,6.83,25.49,25.49,6.83,18.66-18.66,25.49,6.83,18.66-18.66-6.83-25.49-25.49-6.83-6.83-25.49-25.49-6.83-6.83-25.49,18.66-18.66,25.49,6.83,6.83,25.49,25.49,6.83,18.66-18.66-6.83-25.49,18.66-18.66,25.49,6.83,18.66-18.66-6.83-25.49,18.66-18.66,25.49,6.83,18.66-18.66-6.83-25.49,18.66-18.66-6.83-25.49-25.49-6.83-18.66,18.66,6.83,25.49-18.66,18.66-25.49-6.83-18.66,18.66,6.83,25.49-18.66,18.66-25.49-6.83-18.66,18.66-25.49-6.83-18.66,18.66-25.49-6.83-18.66,18.66,6.83,25.49-18.66,18.66ZM560.66,422.88l17.85-17.85,25.49,6.83,18.66-18.66,25.49,6.83,18.66-18.66,25.49,6.83,19.48-19.48-6.83-25.49,17.85-17.85,25.49,6.83,19.48-19.48-6.83-25.49,17.85-17.85,24.38,6.53,6.53,24.38-18.66,18.66,6.83,25.49-17.85,17.85-25.49-6.83-19.48,19.48,6.83,25.49-17.85,17.85-25.49-6.83-19.48,19.48,6.83,25.49-17.85,17.85-24.38-6.53-6.83-25.49-26.61-7.13-19.48,19.48,7.13,26.61,25.49,6.83,6.83,25.49,25.49,6.83,6.53,24.38-17.85,17.85-25.49-6.83-18.66,18.66-24.38-6.53-6.53-24.38,18.66-18.66-7.13-26.61-25.49-6.83-6.53-24.38,18.66-18.66-6.83-25.49Z"/>
        </g>
        <g class="cls-26">
          <polygon class="cls-3" points="578.13 403.92 571.3 378.43 545.81 371.6 538.98 346.11 557.64 327.45 583.13 334.28 601.79 315.61 627.29 322.45 645.95 303.78 671.44 310.61 690.1 291.95 715.6 298.78 734.26 280.12 727.43 254.63 701.94 247.8 695.1 222.3 669.61 215.47 650.95 234.14 657.78 259.63 639.12 278.29 613.63 271.46 606.79 245.97 625.46 227.3 625.46 227.3 625.46 227.3 618.63 201.81 637.29 183.15 630.46 157.66 649.12 138.99 674.61 145.82 681.44 171.32 681.44 171.32 681.44 171.32 706.94 178.15 725.6 159.49 718.77 133.99 737.43 115.33 762.92 122.16 769.75 147.66 795.25 154.49 802.08 179.98 827.57 186.81 834.4 212.3 815.74 230.97 822.57 256.46 803.91 275.12 778.41 268.29 759.75 286.95 766.58 312.44 747.92 331.11 722.43 324.28 703.77 342.94 710.6 368.43 691.94 387.09 666.44 380.26 647.78 398.92 654.61 424.42 635.95 443.08 610.46 436.25 603.62 410.76 578.13 403.92"/>
          <path class="cls-6" d="M603.62,410.76l6.83,25.49,25.49,6.83,18.66-18.66-6.83-25.49,18.66-18.66,25.49,6.83,18.66-18.66-6.83-25.49,18.66-18.66,25.49,6.83,18.66-18.66-6.83-25.49,18.66-18.66,25.49,6.83,18.66-18.66-6.83-25.49,18.66-18.66-6.83-25.49-25.49-6.83-6.83-25.49-25.49-6.83-6.83-25.49-25.49-6.83-18.66,18.66,6.83,25.49-18.66,18.66-25.49-6.83h0s0,0,0,0l-6.83-25.49-25.49-6.83-18.66,18.66,6.83,25.49-18.66,18.66,6.83,25.49h0s0,0,0,0l-18.66,18.66,6.83,25.49,25.49,6.83,18.66-18.66-6.83-25.49,18.66-18.66,25.49,6.83,6.83,25.49,25.49,6.83,6.83,25.49-18.66,18.66-25.49-6.83-18.66,18.66-25.49-6.83-18.66,18.66-25.49-6.83-18.66,18.66-25.49-6.83-18.66,18.66,6.83,25.49,25.49,6.83,6.83,25.49,25.49,6.83ZM546.62,370.79l-6.53-24.38,17.85-17.85,25.49,6.83,18.66-18.66,25.49,6.83,18.66-18.66,25.49,6.83,18.66-18.66,25.49,6.83,19.48-19.48-7.13-26.61-25.49-6.83-6.83-25.49-26.61-7.13-19.48,19.48,6.83,25.49-17.85,17.85-24.38-6.53-6.53-24.38,18.66-18.66-6.83-25.49,18.66-18.66-6.83-25.49,17.85-17.85,24.38,6.53,6.83,25.49,26.61,7.13,19.48-19.48-6.83-25.49,17.85-17.85,24.38,6.53,6.83,25.49,25.49,6.83,6.83,25.49,25.49,6.83,6.53,24.38-18.66,18.66,6.83,25.49-17.85,17.85-25.49-6.83-19.48,19.48,6.83,25.49-17.85,17.85-25.49-6.83-19.48,19.48,6.83,25.49-17.85,17.85-25.49-6.83-19.48,19.48,6.83,25.49-17.85,17.85-24.38-6.53-6.83-25.49-25.49-6.83-6.83-25.49-25.49-6.83Z"/>
        </g>
        <g class="cls-19">
          <polygon class="cls-3" points="564.34 256.83 571.17 282.32 552.51 300.99 527.01 294.16 520.18 268.66 538.84 250 564.34 256.83"/>
          <path class="cls-6" d="M538.84,250l-18.66,18.66,6.83,25.49,25.49,6.83,18.66-18.66-6.83-25.49-25.49-6.83ZM552.21,299.87l-24.38-6.53-6.53-24.38,17.85-17.85,24.38,6.53,6.53,24.38-17.85,17.85Z"/>
        </g>
        <g class="cls-13">
          <polygon class="cls-4" points="466.66 515.95 448 534.61 422.51 527.78 415.67 502.29 390.18 495.46 383.35 469.96 402.01 451.3 427.51 458.13 434.34 483.63 459.83 490.46 466.66 515.95"/>
          <path class="cls-6" d="M459.83,490.46l-25.49-6.83-6.83-25.49-25.49-6.83-18.66,18.66,6.83,25.49,25.49,6.83,6.83,25.49,25.49,6.83,18.66-18.66-6.83-25.49ZM447.7,533.5l-24.38-6.53-6.83-25.49-25.49-6.83-6.53-24.38,17.85-17.85,24.38,6.53,6.83,25.49,25.49,6.83,6.53,24.38-17.85,17.85Z"/>
        </g>
        <g class="cls-25">
          <polygon class="cls-1" points="608.22 329.08 581.79 355.52 591.46 391.63 627.58 401.31 654.01 374.87 644.34 338.76 608.22 329.08"/>
          <path class="cls-1" d="M644.34,338.76l-36.11-9.68-26.44,26.44,9.68,36.11,36.11,9.68,26.44-26.44-9.68-36.11ZM627.28,400.19l-35-9.38-9.38-35,25.62-25.62,35,9.38,9.38,35-25.62,25.62Z"/>
        </g>
        <g class="cls-22">
          <polygon class="cls-1" points="727.84 254.22 734.67 279.72 716.01 298.38 690.51 291.55 683.68 266.06 702.35 247.39 727.84 254.22"/>
          <path class="cls-6" d="M702.35,247.39l-18.66,18.66,6.83,25.49,25.49,6.83,18.66-18.66-6.83-25.49-25.49-6.83ZM715.71,297.26l-24.38-6.53-6.53-24.38,17.85-17.85,24.38,6.53,6.53,24.38-17.85,17.85Z"/>
        </g>
        <g class="cls-10">
          <polygon class="cls-3" points="733.08 540.12 707.59 533.29 700.76 507.8 675.26 500.97 656.6 519.63 656.6 519.63 656.6 519.63 631.11 512.8 612.45 531.46 586.95 524.63 580.12 499.14 598.78 480.47 591.95 454.98 566.46 448.15 547.8 466.81 522.31 459.98 503.64 478.64 510.47 504.14 535.97 510.97 542.8 536.46 568.29 543.29 575.12 568.78 600.62 575.61 619.28 556.95 644.77 563.78 663.43 545.12 688.93 551.95 695.76 577.44 721.25 584.28 739.91 565.61 733.08 540.12"/>
          <path class="cls-6" d="M707.59,533.29l-6.83-25.49-25.49-6.83-18.66,18.66h0s0,0,0,0l-25.49-6.83-18.66,18.66-25.49-6.83-6.83-25.49,18.66-18.66-6.83-25.49-25.49-6.83-18.66,18.66-25.49-6.83-18.66,18.66,6.83,25.49,25.49,6.83,6.83,25.49,25.49,6.83,6.83,25.49,25.49,6.83,18.66-18.66,25.49,6.83,18.66-18.66,25.49,6.83,6.83,25.49,25.49,6.83,18.66-18.66-6.83-25.49-25.49-6.83ZM720.95,583.16l-24.38-6.53-6.83-25.49-26.61-7.13-18.66,18.66-25.49-6.83-18.66,18.66-24.38-6.53-6.83-25.49-25.49-6.83-6.83-25.49-25.49-6.83-6.53-24.38,17.85-17.85,25.49,6.83,18.66-18.66,24.38,6.53,6.53,24.38-18.66,18.66,7.13,26.61,26.61,7.13,18.66-18.66,25.49,6.83,18.66-18.66,24.38,6.53,6.83,25.49,25.49,6.83,6.53,24.38-17.85,17.85Z"/>
        </g>
        <g class="cls-15">
          <polygon class="cls-3" points="801.25 440.12 775.75 433.29 757.09 451.95 731.6 445.12 724.77 419.63 699.27 412.8 680.61 431.46 687.44 456.95 712.94 463.78 719.77 489.28 745.26 496.11 763.92 477.44 763.92 477.44 763.92 477.44 789.41 484.27 808.08 465.61 801.25 440.12"/>
          <path class="cls-6" d="M712.94,463.78l6.83,25.49,25.49,6.83,18.66-18.66h0s0,0,0,0l25.49,6.83,18.66-18.66-6.83-25.49-25.49-6.83-18.66,18.66-25.49-6.83-6.83-25.49-25.49-6.83-18.66,18.66,6.83,25.49,25.49,6.83ZM681.73,431.76l17.85-17.85,24.38,6.53,6.83,25.49,26.61,7.13,18.66-18.66,24.38,6.53,6.53,24.38-17.85,17.85-25.49-6.83-18.66,18.66-24.38-6.53-6.83-25.49-25.49-6.83-6.53-24.38Z"/>
        </g>
        <g class="cls-30">
          <polygon class="cls-1" points="775.82 433.26 757.16 451.92 731.66 445.09 724.83 419.59 743.49 400.93 768.99 407.76 775.82 433.26"/>
          <path class="cls-6" d="M768.99,407.76l-25.49-6.83-18.66,18.66,6.83,25.49,25.49,6.83,18.66-18.66-6.83-25.49ZM756.86,450.8l-24.38-6.53-6.53-24.38,17.85-17.85,24.38,6.53,6.53,24.38-17.85,17.85Z"/>
        </g>
        <g class="cls-8">
          <polygon class="cls-1" points="316.15 475.11 297.49 493.78 272 486.94 265.16 461.45 283.83 442.79 309.32 449.62 316.15 475.11"/>
          <path class="cls-6" d="M309.32,449.62l-25.49-6.83-18.66,18.66,6.83,25.49,25.49,6.83,18.66-18.66-6.83-25.49ZM297.19,492.66l-24.38-6.53-6.53-24.38,17.85-17.85,24.38,6.53,6.53,24.38-17.85,17.85Z"/>
        </g>
        <g class="cls-20">
          <polygon class="cls-3" points="559.21 422.8 533.71 415.97 515.05 434.63 515.05 434.63 489.56 427.8 470.9 446.46 477.73 471.95 477.73 471.95 477.73 471.95 459.06 490.62 465.9 516.11 491.39 522.94 510.05 504.28 503.22 478.78 503.22 478.78 503.22 478.78 521.88 460.12 521.88 460.12 521.88 460.12 547.37 466.95 566.04 448.29 559.21 422.8"/>
          <path class="cls-6" d="M559.21,422.8l-25.49-6.83-18.66,18.66h0l-25.49-6.83-18.66,18.66,6.83,25.49h0s0,0,0,0l-18.66,18.66,6.83,25.49,25.49,6.55,18.66-18.66-6.83-25.21h0s18.66-18.66,18.66-18.66h0s0,0,0,0l25.49,6.83,18.66-18.66-6.83-25.49ZM547.08,465.84l-25.49-6.83-19.48,19.48,6.83,25.49-17.85,17.85-24.38-6.53-6.53-24.38,18.66-18.66-6.83-25.49,17.85-17.85,25.49,6.83,18.66-18.66,24.38,6.53,6.53,24.38-17.85,17.85Z"/>
        </g>
        <g class="cls-33">
          <polygon class="cls-1" points="352.46 437.7 359.29 463.19 340.63 481.85 315.14 475.02 308.31 449.53 326.97 430.87 352.46 437.7"/>
          <path class="cls-6" d="M326.97,430.87l-18.66,18.66,6.83,25.49,25.49,6.83,18.66-18.66-6.83-25.49-25.49-6.83ZM340.33,480.74l-24.38-6.53-6.53-24.38,17.85-17.85,24.38,6.53,6.53,24.38-17.85,17.85Z"/>
        </g>
        <g class="cls-12">
          <polygon class="cls-7" points="411.36 92.82 385.87 85.99 385.87 85.99 385.87 85.99 379.04 60.5 353.54 53.67 334.88 72.33 341.71 97.82 341.71 97.82 341.71 97.82 323.05 116.48 329.88 141.98 355.37 148.81 374.04 130.15 399.53 136.98 418.19 118.32 411.36 92.82"/>
          <polygon class="cls-7" points="122.06 252.81 128.89 278.3 110.23 296.97 84.74 290.14 77.91 264.64 96.57 245.98 122.06 252.81"/>
          <polygon class="cls-7" points="146.03 165.11 152.86 190.6 134.2 209.26 108.7 202.43 101.87 176.94 120.53 158.28 146.03 165.11"/>
          <polygon class="cls-7" points="169.46 76.71 176.3 102.2 157.63 120.86 132.14 114.03 125.31 88.54 143.97 69.88 169.46 76.71"/>
          <path class="cls-7" d="M42.46,398.44l-26.61-7.13-7.13-26.61,19.48-19.48,26.61,7.13,7.13,26.61-19.48,19.48ZM17.48,389.67l24.38,6.53,17.85-17.85-6.53-24.38-24.38-6.53-17.85,17.85,6.53,24.38Z"/>
          <path class="cls-7" d="M235.03,142.27l-26.61-7.13-7.13-26.61,18.66-18.66-6.83-25.49,19.48-19.48,25.49,6.83,18.66-18.66,26.61,7.13,7.13,26.61-19.48,19.48-25.49-6.83-17.85,17.85,6.83,25.49-19.48,19.48ZM210.06,133.51l24.38,6.53,17.85-17.85-6.83-25.49,19.48-19.48,25.49,6.83,17.85-17.85-6.53-24.38-24.38-6.53-18.66,18.66-25.49-6.83-17.85,17.85,6.83,25.49-18.66,18.66,6.53,24.38Z"/>
          <polygon class="cls-7" points="597.97 2.25 572.48 -4.58 553.82 14.09 553.82 14.09 528.32 7.25 509.66 25.92 516.49 51.41 516.49 51.41 516.49 51.41 497.83 70.07 504.66 95.57 530.16 102.4 548.82 83.73 541.99 58.24 541.99 58.24 541.99 58.24 560.65 39.58 560.65 39.58 560.65 39.58 586.14 46.41 604.8 27.75 597.97 2.25"/>
        </g>
        <g class="cls-31">
          <polygon class="cls-4" points="-56.07 205.56 -62.9 180.07 -88.39 173.24 -95.23 147.75 -76.56 129.08 -51.07 135.91 -32.41 117.25 -6.91 124.08 11.75 105.42 37.24 112.25 55.9 93.59 81.4 100.42 100.06 81.76 93.23 56.27 67.73 49.43 60.9 23.94 35.41 17.11 16.75 35.77 23.58 61.27 4.92 79.93 -20.58 73.1 -27.41 47.6 -8.75 28.94 -8.74 28.94 -8.75 28.94 -15.58 3.45 3.09 -15.21 -3.74 -40.71 14.92 -59.37 40.41 -52.54 47.24 -27.04 47.24 -27.04 47.24 -27.04 72.73 -20.21 91.4 -38.88 84.57 -64.37 103.23 -83.03 128.72 -76.2 135.55 -50.71 161.04 -43.88 167.88 -18.38 193.37 -11.55 200.2 13.94 181.54 32.6 188.37 58.1 169.71 76.76 144.21 69.93 125.55 88.59 132.38 114.08 113.72 132.74 88.23 125.91 69.56 144.58 76.4 170.07 57.73 188.73 32.24 181.9 13.58 200.56 20.41 226.06 1.75 244.72 -23.75 237.89 -30.58 212.39 -56.07 205.56"/>
          <path class="cls-6" d="M-30.58,212.39l6.83,25.49,25.49,6.83,18.66-18.66-6.83-25.49,18.66-18.66,25.49,6.83,18.66-18.66-6.83-25.49,18.66-18.66,25.49,6.83,18.66-18.66-6.83-25.49,18.66-18.66,25.49,6.83,18.66-18.66-6.83-25.49,18.66-18.66-6.83-25.49-25.49-6.83-6.83-25.49-25.49-6.83-6.83-25.49-25.49-6.83-18.66,18.66,6.83,25.49-18.66,18.66-25.49-6.83h0s0,0,0,0l-6.83-25.49-25.49-6.83L-3.74-40.71,3.09-15.21-15.58,3.45l6.83,25.49h0s0,0,0,0l-18.66,18.66,6.83,25.49,25.49,6.83,18.66-18.66-6.83-25.49,18.66-18.66,25.49,6.83,6.83,25.49,25.49,6.83,6.83,25.49-18.66,18.66-25.49-6.83-18.66,18.66-25.49-6.83-18.66,18.66-25.49-6.83-18.66,18.66-25.49-6.83-18.66,18.66,6.83,25.49,25.49,6.83,6.83,25.49,25.49,6.83ZM-87.58,172.42l-6.53-24.38,17.85-17.85,25.49,6.83,18.66-18.66,25.49,6.83,18.66-18.66,25.49,6.83,18.66-18.66,25.49,6.83,19.48-19.48-7.13-26.61-25.49-6.83-6.83-25.49-26.61-7.13-19.48,19.48,6.83,25.49-17.85,17.85-24.38-6.53-6.53-24.38L-7.63,29.24-14.46,3.75,4.2-14.91l-6.83-25.49,17.85-17.85,24.38,6.53,6.83,25.49,26.61,7.13,19.48-19.48-6.83-25.49,17.85-17.85,24.38,6.53,6.83,25.49,25.49,6.83,6.83,25.49,25.49,6.83,6.53,24.38-18.66,18.66,6.83,25.49-17.85,17.85-25.49-6.83-19.48,19.48,6.83,25.49-17.85,17.85-25.49-6.83-19.48,19.48,6.83,25.49-17.85,17.85-25.49-6.83-19.48,19.48,6.83,25.49L1.45,243.6l-24.38-6.53-6.83-25.49-25.49-6.83-6.83-25.49-25.49-6.83Z"/>
        </g>
        <g class="cls-9">
          <polygon class="cls-3" points="101.88 176.91 108.71 202.4 90.05 221.06 64.55 214.23 45.89 232.89 20.4 226.06 1.74 244.72 -23.76 237.89 -42.42 256.56 -35.59 282.05 -54.25 300.71 -79.74 293.88 -98.4 312.54 -91.57 338.03 -110.23 356.7 -135.73 349.86 -142.56 324.37 -123.9 305.71 -130.73 280.22 -112.06 261.55 -86.57 268.39 -67.91 249.72 -74.74 224.23 -56.08 205.57 -30.59 212.4 -11.92 193.74 -18.76 168.25 -.09 149.58 25.4 156.41 32.23 181.91 57.72 188.74 76.39 170.08 69.56 144.58 44.06 137.75 37.23 112.26 11.74 105.43 4.91 79.93 23.57 61.27 49.06 68.1 67.72 49.44 93.22 56.27 100.05 81.77 81.39 100.43 88.22 125.92 113.71 132.75 120.54 158.24 101.88 176.91"/>
          <path class="cls-6" d="M120.54,158.24l-6.83-25.49-25.49-6.83-6.83-25.49,18.66-18.66-6.83-25.49-25.49-6.83-18.66,18.66-25.49-6.83-18.66,18.66,6.83,25.49,25.49,6.83,6.83,25.49,25.49,6.83,6.83,25.49-18.66,18.66-25.49-6.83-6.83-25.49L-.09,149.58l-18.66,18.66,6.83,25.49-18.66,18.66-25.49-6.83-18.66,18.66,6.83,25.49-18.66,18.66-25.49-6.83-18.66,18.66,6.83,25.49-18.66,18.66,6.83,25.49,25.49,6.83,18.66-18.66-6.83-25.49,18.66-18.66,25.49,6.83,18.66-18.66-6.83-25.49,18.66-18.66,25.49,6.83,18.66-18.66,25.49,6.83,18.66-18.66,25.49,6.83,18.66-18.66-6.83-25.49,18.66-18.66ZM107.59,202.1l-17.85,17.85-25.49-6.83-18.66,18.66-25.49-6.83L1.44,243.61l-25.49-6.83-19.48,19.48,6.83,25.49-17.85,17.85-25.49-6.83-19.48,19.48,6.83,25.49-17.85,17.85-24.38-6.53-6.53-24.38,18.66-18.66-6.83-25.49,17.85-17.85,25.49,6.83,19.48-19.48-6.83-25.49,17.85-17.85,25.49,6.83,19.48-19.48-6.83-25.49L.21,150.7l24.38,6.53,6.83,25.49,26.61,7.13,19.48-19.48-7.13-26.61-25.49-6.83-6.83-25.49-25.49-6.83-6.53-24.38,17.85-17.85,25.49,6.83,18.66-18.66,24.38,6.53,6.53,24.38-18.66,18.66,7.13,26.61,25.49,6.83,6.53,24.38-18.66,18.66,6.83,25.49Z"/>
        </g>
        <g class="cls-17">
          <path class="cls-3" d="M256.08-42.16l-6.83-25.49-25.49-6.83-18.66,18.66-25.49-6.83-18.66,18.66,6.83,25.49,25.49,6.83,6.83,25.49h0s-18.66,18.66-18.66,18.66l6.83,25.49,25.49,6.83,18.66-18.66-6.83-25.49h0S244.25,2,244.25,2l25.49,6.83,6.83,25.49,25.49,6.83,6.83,25.49,25.49,6.83,18.66-18.66,25.49,6.83,6.83,25.49,25.49,6.83,18.66-18.66,25.49,6.83,18.66-18.66-6.83-25.49,18.66-18.66-6.83-25.49-25.49-6.83-6.83-25.49-25.49-6.83-6.83-25.49-25.49-6.83-6.83-25.49-25.49-6.83-6.83-25.49-25.49-6.83-6.83-25.49-25.49-6.83-6.83-25.49-25.49-6.83-18.66,18.66-25.49-6.83-18.66,18.66,6.83,25.49,25.49,6.83,6.83,25.49,25.49,6.83,6.83,25.49,25.49,6.83,6.83,25.49,25.49,6.83,18.66-18.66,25.49,6.83,6.83,25.49,25.49,6.83,6.83,25.49-18.66,18.66-25.49-6.83-18.66,18.66-25.49-6.83-6.83-25.49-25.49-6.83-6.83-25.49-25.49-6.83"/>
          <path class="cls-6" d="M466.86,37.98l18.66-18.66-6.83-25.49-25.49-6.83-6.83-25.49-25.49-6.83-6.83-25.49-25.49-6.83-6.83-25.49-25.49-6.83-6.83-25.49-25.49-6.83-6.83-25.49-25.49-6.83-6.83-25.49-25.49-6.83-18.66,18.66-25.49-6.83-18.66,18.66,6.83,25.49,25.49,6.83,6.83,25.49,25.49,6.83,6.83,25.49,25.49,6.83,6.83,25.49,25.49,6.83,18.66-18.66,25.49,6.83,6.83,25.49,25.49,6.83,6.83,25.49-18.66,18.66-25.49-6.83-18.66,18.66-25.49-6.83-6.83-25.49-25.49-6.83-6.83-25.49-25.49-6.83h0s-6.83-25.49-6.83-25.49l-25.49-6.83-18.66,18.66-25.49-6.83-18.66,18.66,6.83,25.49,25.49,6.83,6.83,25.49h0s-18.66,18.66-18.66,18.66l6.83,25.49,25.49,6.83,18.66-18.66-6.83-25.49h0S244.25,2,244.25,2l25.49,6.83,6.83,25.49,25.49,6.83,6.83,25.49,25.49,6.83,18.66-18.66,25.49,6.83,6.83,25.49,25.49,6.83,18.66-18.66,25.49,6.83,18.66-18.66-6.83-25.49ZM454.73,81.02l-25.49-6.83-18.66,18.66-24.38-6.53-6.83-25.49-26.61-7.13-18.66,18.66-24.38-6.53-6.83-25.49-25.49-6.83-6.83-25.49-26.61-7.13-19.48,19.48,6.83,25.49-17.85,17.85-24.38-6.53-6.53-24.38,18.66-18.66-7.13-26.61-25.49-6.83-6.53-24.38,17.85-17.85,25.49,6.83,18.66-18.66,24.38,6.53,6.83,25.49,25.49,6.83,6.83,25.49,25.49,6.83,6.83,25.49,26.61,7.13,18.66-18.66,25.49,6.83L410.16-.88l-7.13-26.61-25.49-6.83-6.83-25.49-26.61-7.13-18.66,18.66-24.38-6.53-6.83-25.49-25.49-6.83-6.83-25.49-25.49-6.83-6.83-25.49-25.49-6.83-6.53-24.38,17.85-17.85,25.49,6.83,18.66-18.66,24.38,6.53,6.83,25.49,25.49,6.83,6.83,25.49,25.49,6.83,6.83,25.49,25.49,6.83,6.83,25.49,25.49,6.83,6.83,25.49,25.49,6.83,6.83,25.49,25.49,6.83,6.53,24.38-18.66,18.66,6.83,25.49-17.85,17.85Z"/>
        </g>
        <g class="cls-28">
          <polygon class="cls-1" points="308.74 66.5 290.08 85.16 264.58 78.33 257.75 52.84 232.26 46.01 225.43 20.52 244.09 1.85 269.58 8.68 276.41 34.18 301.91 41.01 308.74 66.5"/>
          <path class="cls-6" d="M301.91,41.01l-25.49-6.83-6.83-25.49-25.49-6.83-18.66,18.66,6.83,25.49,25.49,6.83,6.83,25.49,25.49,6.83,18.66-18.66-6.83-25.49ZM289.78,84.05l-24.38-6.53-6.83-25.49-25.49-6.83-6.53-24.38,17.85-17.85,24.38,6.53,6.83,25.49,25.49,6.83,6.53,24.38-17.85,17.85Z"/>
        </g>
        <g class="cls-18">
          <polygon class="cls-1" points="-33.65 -23.75 -60.09 2.68 -50.41 38.79 -14.3 48.47 12.13 22.03 2.46 -14.08 -33.65 -23.75"/>
          <path class="cls-1" d="M2.46-14.08l-36.11-9.68L-60.09,2.68l9.68,36.11,36.11,9.68L12.13,22.03,2.46-14.08ZM-14.6,47.36l-35-9.38L-58.98,2.98l25.62-25.62L1.64-13.26,11.02,21.74l-25.62,25.62Z"/>
        </g>
        <g class="cls-29">
          <polygon class="cls-1" points="408.35 -25.56 381.91 .88 391.59 36.99 427.7 46.67 454.14 20.23 444.46 -15.88 408.35 -25.56"/>
          <path class="cls-1" d="M444.46-15.88l-36.11-9.68L381.91.88l9.68,36.11,36.11,9.68,26.44-26.44-9.68-36.11ZM427.4,45.55l-35-9.38-9.38-35,25.62-25.62,35,9.38,9.38,35-25.62,25.62Z"/>
        </g>
        <g class="cls-32">
          <polygon class="cls-1" points="190.25 154.09 197.08 179.59 178.42 198.25 152.92 191.42 146.09 165.92 164.75 147.26 190.25 154.09"/>
          <path class="cls-6" d="M164.75,147.26l-18.66,18.66,6.83,25.49,25.49,6.83,18.66-18.66-6.83-25.49-25.49-6.83ZM195.96,179.29l-17.85,17.85-24.38-6.53-6.53-24.38,17.85-17.85,24.38,6.53,6.53,24.38Z"/>
        </g>
        <g class="cls-24">
          <polygon class="cls-1" points="61.06 23.78 67.95 49.5 49.12 68.33 23.41 61.44 16.52 35.72 35.34 16.89 61.06 23.78"/>
          <path class="cls-6" d="M35.34,16.89l-18.83,18.83,6.89,25.72,25.72,6.89,18.83-18.83-6.89-25.72-25.72-6.89ZM66.82,49.2l-18,18-24.59-6.59-6.59-24.59,18-18,24.59,6.59,6.59,24.59Z"/>
        </g>
        <g class="cls-11">
          <polygon class="cls-1" points="90.01 220.22 96.84 245.71 78.18 264.38 52.68 257.55 45.85 232.05 64.51 213.39 90.01 220.22"/>
          <path class="cls-6" d="M64.51,213.39l-18.66,18.66,6.83,25.49,25.49,6.83,18.66-18.66-6.83-25.49-25.49-6.83ZM95.72,245.42l-17.85,17.85-24.38-6.53-6.53-24.38,17.85-17.85,24.38,6.53,6.53,24.38Z"/>
        </g>
        <g class="cls-23">
          <polygon class="cls-3" points="65.91 309.43 40.41 302.6 40.41 302.6 40.41 302.6 33.58 277.1 8.09 270.27 -10.57 288.94 -3.74 314.43 -3.74 314.43 -3.74 314.43 -22.4 333.09 -15.57 358.58 9.92 365.41 28.58 346.75 54.07 353.58 72.74 334.92 65.91 309.43"/>
          <path class="cls-6" d="M65.91,309.14l-25.49-6.83h0,0s-6.83-25.49-6.83-25.49l-25.49-6.83-18.66,18.66,6.83,25.49h0,0l-18.66,18.66,6.83,25.49,25.49,6.83,18.66-18.66,25.49,6.83,18.66-18.66-6.83-25.49ZM53.78,352.18l-25.49-6.83-18.66,18.66-24.38-6.53-6.53-24.38,18.66-18.66-6.83-25.49,17.85-17.85,24.38,6.53,6.83,25.49,25.49,6.83,6.53,24.38-17.85,17.85Z"/>
        </g>
        <g class="cls-16">
          <polygon class="cls-3" points="567.05 -29.78 541.56 -36.62 522.9 -17.95 522.9 -17.95 497.4 -24.78 478.74 -6.12 485.57 19.37 485.57 19.37 485.57 19.37 466.91 38.03 473.74 63.53 499.23 70.36 517.9 51.69 511.07 26.2 511.07 26.2 511.07 26.2 529.73 7.54 529.73 7.54 529.73 7.54 555.22 14.37 573.88 -4.29 567.05 -29.78"/>
          <path class="cls-6" d="M567.05-29.78l-25.49-6.83-18.66,18.66h0s-25.49-6.83-25.49-6.83l-18.66,18.66,6.83,25.49h0,0l-18.66,18.66,6.83,25.49,25.49,6.55,18.66-18.66-6.83-25.21h0l18.66-18.66h0s0,0,0,0l25.49,6.83,18.66-18.66-6.83-25.49ZM554.92,13.26l-25.49-6.83-19.48,19.48,6.83,25.49-17.85,17.85-24.38-6.53-6.53-24.38,18.66-18.66-6.83-25.49,17.85-17.85,25.49,6.83,18.66-18.66,24.38,6.53,6.53,24.38-17.85,17.85Z"/>
        </g>
      </g>
    </g>
  </g>
</svg>